<svg width="25" height="21" viewBox="0 0 25 21" fill="none" xmlns="http://www.w3.org/2000/svg">
<path d="M12.5 12.5L21.5 7L13 1.5L3 6.5L12.5 12.5Z" fill="black"/>
<path d="M6 16V9L12.5 12L19 9.5V15.5L12.5 19.5L6 16Z" fill="black"/>
<path d="M12.5 0L0 6.81818L4.54545 9.29545V16.1136L12.5 20.4545L20.4545 16.1136V9.29545L22.7273 8.05682V15.9091H25V6.81818L12.5 0ZM20.25 6.81818L12.5 11.0455L4.75 6.81818L12.5 2.59091L20.25 6.81818ZM18.1818 14.7727L12.5 17.8636L6.81818 14.7727V10.5341L12.5 13.6364L18.1818 10.5341V14.7727Z" fill="#0062F0"/>
</svg>
